<svg width="25pt" height="26pt" viewBox="0 0 25 26" xmlns="http://www.w3.org/2000/svg"><g id="fontsvg1675803908144" stroke-linecap="round" fill-rule="evenodd" fill="#2133e1"><path d="M 13 12.76 L 24.24 12.76 A 0.576 0.576 0 0 1 24.399 12.78 Q 24.576 12.831 24.623 13.012 A 0.589 0.589 0 0 1 24.64 13.16 L 24.64 20 Q 24.64 22.017 23.849 23.329 A 4.332 4.332 0 0 1 23.2 24.16 A 4.631 4.631 0 0 1 21.209 25.315 Q 20.491 25.529 19.63 25.582 A 9.503 9.503 0 0 1 19.04 25.6 L 5.6 25.6 Q 3.584 25.6 2.271 24.809 A 4.332 4.332 0 0 1 1.44 24.16 A 4.631 4.631 0 0 1 0.286 22.169 Q 0.072 21.451 0.018 20.59 A 9.503 9.503 0 0 1 0 20 L 0 5.6 Q 0 3.584 0.792 2.271 A 4.332 4.332 0 0 1 1.44 1.44 A 4.631 4.631 0 0 1 3.432 0.286 Q 4.15 0.072 5.01 0.018 A 9.503 9.503 0 0 1 5.6 0 L 19.04 0 Q 21.057 0 22.369 0.792 A 4.332 4.332 0 0 1 23.2 1.44 A 4.631 4.631 0 0 1 24.355 3.432 Q 24.569 4.15 24.622 5.01 A 9.503 9.503 0 0 1 24.64 5.6 L 24.64 11.8 A 0.576 0.576 0 0 1 24.62 11.959 Q 24.57 12.136 24.388 12.183 A 0.589 0.589 0 0 1 24.24 12.2 L 13 12.2 A 0.576 0.576 0 0 1 12.842 12.18 Q 12.664 12.13 12.617 11.948 A 0.589 0.589 0 0 1 12.6 11.8 L 12.6 7.04 L 12.04 7.04 L 12.04 18.56 L 12.6 18.56 L 12.6 13.16 A 0.576 0.576 0 0 1 12.62 13.002 Q 12.671 12.824 12.852 12.777 A 0.589 0.589 0 0 1 13 12.76 Z" vector-effect="non-scaling-stroke"/></g></svg>