<svg width="248pt" height="22pt" viewBox="0 0 250 24" xmlns="http://www.w3.org/2000/svg"><g id="fontsvg1675803354802" stroke-linecap="round" fill-rule="evenodd" fill="#000000"><path d="M 0 15.808 L 0 6.446 A 14.035 14.035 0 0 1 0.134 4.425 Q 0.477 2.079 1.699 0.992 A 3.456 3.456 0 0 1 2.515 0.452 A 4.327 4.327 0 0 1 3.54 0.122 Q 4.102 0.012 4.761 0.012 Q 8.825 0.012 9.242 4.612 A 12.337 12.337 0 0 1 9.29 5.725 L 9.29 8.679 L 6.128 8.679 L 6.128 5.933 A 15.721 15.721 0 0 0 6.111 5.162 Q 6.058 4.094 5.847 3.559 A 1.181 1.181 0 0 0 5.591 3.152 Q 5.286 2.844 4.749 2.844 A 1.355 1.355 0 0 0 4.271 2.924 Q 3.908 3.06 3.698 3.429 A 1.602 1.602 0 0 0 3.614 3.601 Q 3.346 4.24 3.304 5.451 A 13.597 13.597 0 0 0 3.296 5.921 L 3.296 15.955 A 15.765 15.765 0 0 0 3.315 16.76 Q 3.355 17.543 3.48 18.051 A 2.723 2.723 0 0 0 3.601 18.433 A 1.33 1.33 0 0 0 3.848 18.833 Q 4.109 19.117 4.527 19.167 A 1.565 1.565 0 0 0 4.712 19.177 Q 5.411 19.177 5.733 18.608 A 1.578 1.578 0 0 0 5.823 18.421 Q 6.128 17.664 6.128 15.918 L 6.128 12.842 L 9.339 12.842 L 9.339 15.882 A 13.947 13.947 0 0 1 9.251 17.505 Q 9.026 19.415 8.228 20.49 A 3.537 3.537 0 0 1 6.223 21.808 Q 5.555 21.985 4.737 21.985 A 5.621 5.621 0 0 1 3.304 21.814 A 3.747 3.747 0 0 1 1.178 20.392 Q 0.3 19.205 0.077 17.241 A 12.686 12.686 0 0 1 0 15.808 Z M 228.174 7.324 L 228.174 21.741 L 224.939 21.741 L 224.939 7.52 A 2.821 2.821 0 0 0 224.899 7.025 Q 224.818 6.575 224.579 6.275 A 1.167 1.167 0 0 0 223.843 5.849 A 1.759 1.759 0 0 0 223.535 5.823 A 1.271 1.271 0 0 0 222.949 5.956 Q 222.663 6.102 222.455 6.409 A 2.114 2.114 0 0 0 222.174 7.035 Q 222.096 7.314 222.071 7.646 A 4.424 4.424 0 0 0 222.058 7.984 L 222.058 21.741 L 218.824 21.741 L 218.824 3.43 L 222.058 3.43 L 222.058 5.53 A 3.073 3.073 0 0 1 223.108 3.882 A 2.864 2.864 0 0 1 225 3.211 A 3.446 3.446 0 0 1 226.426 3.484 Q 227.903 4.149 228.132 6.431 A 8.952 8.952 0 0 1 228.174 7.324 Z M 87.818 17.591 L 87.818 3.43 L 91.065 3.43 L 91.065 17.09 A 7.319 7.319 0 0 0 91.087 17.68 Q 91.133 18.253 91.278 18.619 A 1.629 1.629 0 0 0 91.345 18.769 A 0.953 0.953 0 0 0 92.011 19.271 A 1.689 1.689 0 0 0 92.395 19.312 A 1.367 1.367 0 0 0 93.158 19.108 Q 93.697 18.756 93.829 17.8 A 5.029 5.029 0 0 0 93.872 17.114 L 93.885 3.43 L 97.107 3.43 L 97.107 21.741 L 93.872 21.741 L 93.872 19.837 A 4.112 4.112 0 0 1 93.358 20.845 Q 92.574 21.938 91.168 21.972 A 3.765 3.765 0 0 1 91.077 21.973 A 3.399 3.399 0 0 1 89.575 21.664 Q 88.14 20.965 87.877 18.69 A 9.601 9.601 0 0 1 87.818 17.591 Z M 160.132 17.591 L 160.132 3.43 L 163.379 3.43 L 163.379 17.09 A 7.319 7.319 0 0 0 163.401 17.68 Q 163.448 18.253 163.592 18.619 A 1.629 1.629 0 0 0 163.66 18.769 A 0.953 0.953 0 0 0 164.326 19.271 A 1.689 1.689 0 0 0 164.71 19.312 A 1.367 1.367 0 0 0 165.473 19.108 Q 166.012 18.756 166.144 17.8 A 5.029 5.029 0 0 0 166.187 17.114 L 166.199 3.43 L 169.422 3.43 L 169.422 21.741 L 166.187 21.741 L 166.187 19.837 A 4.112 4.112 0 0 1 165.672 20.845 Q 164.889 21.938 163.483 21.972 A 3.765 3.765 0 0 1 163.391 21.973 A 3.399 3.399 0 0 1 161.89 21.664 Q 160.454 20.965 160.191 18.69 A 9.601 9.601 0 0 1 160.132 17.591 Z M 206.311 17.591 L 206.311 3.43 L 209.558 3.43 L 209.558 17.09 A 7.319 7.319 0 0 0 209.58 17.68 Q 209.627 18.253 209.772 18.619 A 1.629 1.629 0 0 0 209.839 18.769 A 0.953 0.953 0 0 0 210.505 19.271 A 1.689 1.689 0 0 0 210.889 19.312 A 1.367 1.367 0 0 0 211.652 19.108 Q 212.191 18.756 212.323 17.8 A 5.029 5.029 0 0 0 212.366 17.114 L 212.378 3.43 L 215.601 3.43 L 215.601 21.741 L 212.366 21.741 L 212.366 19.837 A 4.112 4.112 0 0 1 211.851 20.845 Q 211.068 21.938 209.662 21.972 A 3.765 3.765 0 0 1 209.571 21.973 A 3.399 3.399 0 0 1 208.069 21.664 Q 206.633 20.965 206.37 18.69 A 9.601 9.601 0 0 1 206.311 17.591 Z M 148.78 15.698 L 148.78 13.782 L 151.88 13.782 L 151.88 15.943 A 16.723 16.723 0 0 0 151.899 16.773 Q 151.937 17.525 152.048 18.018 A 2.691 2.691 0 0 0 152.185 18.463 Q 152.438 19.065 153.06 19.168 A 1.667 1.667 0 0 0 153.333 19.19 A 1.822 1.822 0 0 0 153.74 19.147 Q 154.248 19.031 154.45 18.592 A 2.202 2.202 0 0 0 154.582 18.195 Q 154.688 17.76 154.715 17.108 A 11.427 11.427 0 0 0 154.724 16.638 A 6.345 6.345 0 0 0 154.621 15.463 A 4.703 4.703 0 0 0 154.236 14.276 A 6.407 6.407 0 0 0 153.711 13.394 Q 153.291 12.797 152.686 12.171 L 151.099 10.535 A 10.763 10.763 0 0 1 150.006 9.203 A 8.661 8.661 0 0 1 149.372 8.13 A 5.849 5.849 0 0 1 148.842 6.421 A 7.636 7.636 0 0 1 148.755 5.249 A 11.082 11.082 0 0 1 148.836 3.86 Q 149.036 2.282 149.729 1.36 A 3.333 3.333 0 0 1 149.781 1.294 A 3.052 3.052 0 0 1 151.093 0.355 Q 151.998 0 153.308 0 Q 155.811 0 156.696 1.508 Q 157.581 3.015 157.581 5.908 L 157.581 7.239 L 154.566 7.239 L 154.566 5.701 A 14.58 14.58 0 0 0 154.549 4.975 Q 154.499 3.969 154.297 3.461 A 1.144 1.144 0 0 0 154.061 3.083 Q 153.773 2.783 153.266 2.783 A 1.785 1.785 0 0 0 152.85 2.829 A 1.084 1.084 0 0 0 152.167 3.296 A 1.71 1.71 0 0 0 151.969 3.731 Q 151.84 4.149 151.832 4.75 A 6.072 6.072 0 0 0 151.831 4.834 A 5.007 5.007 0 0 0 151.87 5.476 Q 151.946 6.065 152.173 6.47 A 4.419 4.419 0 0 0 152.424 6.862 Q 152.696 7.246 153.127 7.728 A 17.989 17.989 0 0 0 153.406 8.032 L 155.176 9.949 Q 156.507 11.389 157.184 12.866 A 7.544 7.544 0 0 1 157.855 15.751 A 8.799 8.799 0 0 1 157.862 16.089 A 14.32 14.32 0 0 1 157.781 17.661 Q 157.603 19.269 157.029 20.262 A 3.793 3.793 0 0 1 156.848 20.545 Q 155.999 21.752 154.083 21.947 A 7.699 7.699 0 0 1 153.302 21.985 A 6.215 6.215 0 0 1 152.003 21.859 Q 151.247 21.697 150.69 21.327 A 3.052 3.052 0 0 1 149.774 20.38 A 5.593 5.593 0 0 1 149.178 19.003 Q 148.792 17.688 148.78 15.82 A 18.748 18.748 0 0 1 148.78 15.698 Z M 194.654 15.637 L 194.654 9.705 A 17.933 17.933 0 0 1 194.735 7.924 Q 194.915 6.129 195.491 5.076 A 3.29 3.29 0 0 1 196.045 4.321 A 3.47 3.47 0 0 1 197.414 3.497 Q 197.963 3.311 198.636 3.246 A 7.934 7.934 0 0 1 199.402 3.211 A 5.82 5.82 0 0 1 200.626 3.331 Q 201.358 3.488 201.9 3.853 A 3.003 3.003 0 0 1 202.649 4.572 A 4.533 4.533 0 0 1 203.307 5.905 Q 203.5 6.518 203.584 7.261 A 10.946 10.946 0 0 1 203.65 8.496 L 203.65 10.51 L 200.525 10.51 L 200.525 8.386 A 15.042 15.042 0 0 0 200.515 7.803 Q 200.478 6.855 200.311 6.447 A 0.826 0.826 0 0 0 200.226 6.287 A 0.938 0.938 0 0 0 199.727 5.93 Q 199.562 5.877 199.359 5.864 A 2.149 2.149 0 0 0 199.219 5.86 Q 198.581 5.86 198.275 6.375 A 1.417 1.417 0 0 0 198.212 6.494 A 2.443 2.443 0 0 0 198.054 6.957 Q 197.938 7.432 197.917 8.121 A 10.352 10.352 0 0 0 197.913 8.435 L 197.913 16.687 A 10.878 10.878 0 0 0 197.93 17.32 Q 197.982 18.201 198.188 18.677 A 1.005 1.005 0 0 0 198.543 19.122 Q 198.822 19.312 199.256 19.312 A 1.107 1.107 0 0 0 199.903 19.118 Q 200.394 18.767 200.489 17.786 Q 200.517 17.515 200.523 17.172 A 11.295 11.295 0 0 0 200.525 16.956 L 200.525 16.699 L 200.525 14.527 L 203.65 14.527 L 203.65 16.382 A 11.579 11.579 0 0 1 203.552 17.939 Q 203.337 19.52 202.649 20.514 Q 201.716 21.862 199.649 21.954 A 6.947 6.947 0 0 1 199.341 21.961 A 7.207 7.207 0 0 1 198.025 21.849 Q 196.341 21.536 195.624 20.337 A 5.75 5.75 0 0 1 195.052 18.983 Q 194.654 17.608 194.654 15.637 Z M 58.582 8.521 L 58.582 9.522 L 55.689 9.522 L 55.689 8.313 A 8.82 8.82 0 0 0 55.667 7.663 Q 55.61 6.898 55.408 6.464 A 1.157 1.157 0 0 0 55.184 6.132 Q 54.913 5.86 54.474 5.86 Q 54.014 5.86 53.723 6.048 A 0.927 0.927 0 0 0 53.51 6.238 A 1.082 1.082 0 0 0 53.336 6.553 Q 53.223 6.858 53.203 7.323 A 4.846 4.846 0 0 0 53.199 7.532 A 3.307 3.307 0 0 0 53.769 9.37 A 4.989 4.989 0 0 0 54.492 10.23 L 56.226 11.804 Q 58.899 14.295 58.899 17.285 A 8.274 8.274 0 0 1 58.806 18.574 Q 58.584 19.977 57.837 20.801 A 3.286 3.286 0 0 1 56.43 21.698 Q 55.901 21.878 55.253 21.94 A 7.473 7.473 0 0 1 54.541 21.973 A 6.183 6.183 0 0 1 53.289 21.854 Q 52.555 21.702 52 21.355 A 3.148 3.148 0 0 1 51.245 20.697 Q 50.25 19.502 50.188 16.951 A 14.215 14.215 0 0 1 50.183 16.602 L 50.183 15.418 L 53.223 15.418 L 53.223 16.895 Q 53.223 18.347 53.663 18.935 A 0.954 0.954 0 0 0 54.468 19.336 A 1.578 1.578 0 0 0 54.827 19.298 Q 55.078 19.239 55.253 19.091 A 0.925 0.925 0 0 0 55.42 18.903 A 1.299 1.299 0 0 0 55.573 18.578 Q 55.682 18.245 55.706 17.739 A 6.401 6.401 0 0 0 55.713 17.432 A 4.044 4.044 0 0 0 55.005 15.17 Q 54.633 14.606 54.065 14.073 A 7.81 7.81 0 0 0 54.029 14.038 Q 53.986 13.996 53.416 13.486 A 418.08 418.08 0 0 0 53.241 13.33 A 157.093 157.093 0 0 1 52.986 13.102 Q 52.48 12.648 52.381 12.549 A 7.4 7.4 0 0 1 50.918 10.754 A 6.062 6.062 0 0 1 50.122 7.703 A 6.746 6.746 0 0 1 50.329 5.952 Q 50.941 3.681 53.364 3.291 A 6.813 6.813 0 0 1 54.444 3.211 A 5.946 5.946 0 0 1 55.618 3.319 Q 56.302 3.457 56.821 3.771 A 2.938 2.938 0 0 1 57.587 4.437 Q 58.582 5.664 58.582 8.521 Z M 192.188 8.521 L 192.188 9.522 L 189.295 9.522 L 189.295 8.313 A 8.82 8.82 0 0 0 189.272 7.663 Q 189.216 6.898 189.014 6.464 A 1.157 1.157 0 0 0 188.79 6.132 Q 188.519 5.86 188.08 5.86 Q 187.619 5.86 187.329 6.048 A 0.927 0.927 0 0 0 187.116 6.238 A 1.082 1.082 0 0 0 186.942 6.553 Q 186.829 6.858 186.809 7.323 A 4.846 4.846 0 0 0 186.804 7.532 A 3.307 3.307 0 0 0 187.375 9.37 A 4.989 4.989 0 0 0 188.098 10.23 L 189.832 11.804 Q 192.505 14.295 192.505 17.285 A 8.274 8.274 0 0 1 192.412 18.574 Q 192.19 19.977 191.443 20.801 A 3.286 3.286 0 0 1 190.036 21.698 Q 189.507 21.878 188.859 21.94 A 7.473 7.473 0 0 1 188.147 21.973 A 6.183 6.183 0 0 1 186.895 21.854 Q 186.161 21.702 185.606 21.355 A 3.148 3.148 0 0 1 184.851 20.697 Q 183.856 19.502 183.794 16.951 A 14.215 14.215 0 0 1 183.789 16.602 L 183.789 15.418 L 186.829 15.418 L 186.829 16.895 Q 186.829 18.347 187.269 18.935 A 0.954 0.954 0 0 0 188.074 19.336 A 1.578 1.578 0 0 0 188.433 19.298 Q 188.684 19.239 188.859 19.091 A 0.925 0.925 0 0 0 189.026 18.903 A 1.299 1.299 0 0 0 189.179 18.578 Q 189.288 18.245 189.312 17.739 A 6.401 6.401 0 0 0 189.319 17.432 A 4.044 4.044 0 0 0 188.611 15.17 Q 188.239 14.606 187.671 14.073 A 7.81 7.81 0 0 0 187.635 14.038 Q 187.592 13.996 187.022 13.486 A 418.08 418.08 0 0 0 186.847 13.33 A 157.093 157.093 0 0 1 186.592 13.102 Q 186.086 12.648 185.987 12.549 A 7.4 7.4 0 0 1 184.524 10.754 A 6.062 6.062 0 0 1 183.728 7.703 A 6.746 6.746 0 0 1 183.935 5.952 Q 184.547 3.681 186.97 3.291 A 6.813 6.813 0 0 1 188.05 3.211 A 5.946 5.946 0 0 1 189.224 3.319 Q 189.908 3.457 190.427 3.771 A 2.938 2.938 0 0 1 191.193 4.437 Q 192.188 5.664 192.188 8.521 Z M 73.145 21.741 L 65.796 21.741 L 65.796 0.257 L 72.998 0.257 L 72.998 3.076 L 69.068 3.076 L 69.068 9.326 L 72.803 9.326 L 72.803 12.085 L 69.068 12.085 L 69.068 18.921 L 73.145 18.921 L 73.145 21.741 Z M 172.376 15.65 L 172.376 8.826 A 9.854 9.854 0 0 1 172.576 6.741 Q 173.344 3.211 177.051 3.211 Q 178.552 3.211 179.496 3.747 A 2.86 2.86 0 0 1 180.5 4.688 A 5.155 5.155 0 0 1 181.102 6.032 Q 181.297 6.686 181.385 7.479 A 12.765 12.765 0 0 1 181.458 8.887 L 181.458 12.805 L 175.635 12.805 L 175.635 16.406 A 17.788 17.788 0 0 0 175.647 17.072 Q 175.697 18.408 175.965 18.83 A 1.059 1.059 0 0 0 176.727 19.332 A 1.473 1.473 0 0 0 176.953 19.348 Q 177.613 19.348 177.808 19.043 A 2.714 2.714 0 0 0 178.09 18.431 A 2.302 2.302 0 0 0 178.186 17.945 Q 178.23 17.437 178.235 16.591 A 36.7 36.7 0 0 0 178.235 16.406 L 178.235 14.795 L 181.433 14.795 L 181.433 15.772 A 25.485 25.485 0 0 1 181.409 16.929 Q 181.336 18.534 181.043 19.348 Q 180.661 20.41 180.163 20.9 A 1.969 1.969 0 0 1 180.139 20.923 A 3.37 3.37 0 0 1 178.853 21.683 Q 178.029 21.961 176.917 21.961 A 6.159 6.159 0 0 1 175.451 21.799 Q 174.479 21.561 173.836 20.971 A 3.497 3.497 0 0 1 172.937 19.605 Q 172.533 18.524 172.42 16.949 A 18.156 18.156 0 0 1 172.376 15.65 Z M 11.695 16.931 L 11.695 15.759 Q 11.695 14.07 12.354 12.971 A 3.618 3.618 0 0 1 12.964 12.207 Q 13.697 11.496 15.341 10.825 A 17.943 17.943 0 0 1 15.735 10.669 Q 16.006 10.566 16.438 10.406 A 222.587 222.587 0 0 1 16.718 10.303 A 246.308 246.308 0 0 0 17.009 10.195 Q 17.411 10.047 17.603 9.973 L 17.603 8.374 Q 17.603 6.968 17.412 6.416 A 1.324 1.324 0 0 0 17.389 6.354 Q 17.188 5.854 16.501 5.825 A 2.057 2.057 0 0 0 16.413 5.823 A 1.601 1.601 0 0 0 16.043 5.863 A 0.904 0.904 0 0 0 15.393 6.384 Q 15.188 6.835 15.147 7.78 A 11.572 11.572 0 0 0 15.137 8.277 L 15.137 9.094 L 11.939 9.094 L 11.939 8.545 A 11.186 11.186 0 0 1 12.029 7.075 Q 12.234 5.528 12.909 4.578 Q 13.88 3.211 16.352 3.211 A 7.01 7.01 0 0 1 17.629 3.319 Q 18.327 3.448 18.862 3.733 A 3.044 3.044 0 0 1 19.867 4.578 Q 20.61 5.551 20.824 7.218 A 11.506 11.506 0 0 1 20.911 8.679 L 20.911 21.741 L 17.652 21.741 L 17.652 19.922 A 2.866 2.866 0 0 1 16.718 21.344 Q 16.028 21.924 15.052 21.924 A 3.897 3.897 0 0 1 14.053 21.804 A 2.497 2.497 0 0 1 12.488 20.636 A 4.693 4.693 0 0 1 12.024 19.538 Q 11.71 18.461 11.695 16.931 Z M 100.025 16.931 L 100.025 15.759 Q 100.025 14.07 100.684 12.971 A 3.618 3.618 0 0 1 101.294 12.207 Q 102.027 11.496 103.671 10.825 A 17.943 17.943 0 0 1 104.065 10.669 Q 104.336 10.566 104.768 10.406 A 222.587 222.587 0 0 1 105.048 10.303 A 246.308 246.308 0 0 0 105.339 10.195 Q 105.741 10.047 105.933 9.973 L 105.933 8.374 Q 105.933 6.968 105.742 6.416 A 1.324 1.324 0 0 0 105.719 6.354 Q 105.518 5.854 104.831 5.825 A 2.057 2.057 0 0 0 104.743 5.823 A 1.601 1.601 0 0 0 104.373 5.863 A 0.904 0.904 0 0 0 103.723 6.384 Q 103.518 6.835 103.477 7.78 A 11.572 11.572 0 0 0 103.467 8.277 L 103.467 9.094 L 100.269 9.094 L 100.269 8.545 A 11.186 11.186 0 0 1 100.359 7.075 Q 100.565 5.528 101.239 4.578 Q 102.21 3.211 104.682 3.211 A 7.01 7.01 0 0 1 105.959 3.319 Q 106.657 3.448 107.192 3.733 A 3.044 3.044 0 0 1 108.197 4.578 Q 108.94 5.551 109.154 7.218 A 11.506 11.506 0 0 1 109.241 8.679 L 109.241 21.741 L 105.982 21.741 L 105.982 19.922 A 2.866 2.866 0 0 1 105.048 21.344 Q 104.358 21.924 103.382 21.924 A 3.897 3.897 0 0 1 102.383 21.804 A 2.497 2.497 0 0 1 100.818 20.636 A 4.693 4.693 0 0 1 100.354 19.538 Q 100.04 18.461 100.025 16.931 Z M 75.489 15.894 L 75.489 8.435 A 10.26 10.26 0 0 1 75.602 6.862 Q 75.731 6.035 76.004 5.352 A 5.334 5.334 0 0 1 76.331 4.675 A 2.781 2.781 0 0 1 78.344 3.276 A 4.327 4.327 0 0 1 79.114 3.211 A 2.703 2.703 0 0 1 80.5 3.577 A 2.634 2.634 0 0 1 81.482 4.566 L 81.482 0.073 L 84.717 0.073 L 84.717 21.741 L 81.482 21.741 L 81.482 20.044 A 3.522 3.522 0 0 1 80.954 20.984 Q 80.255 21.851 79.063 21.918 A 3.623 3.623 0 0 1 78.858 21.924 A 4.171 4.171 0 0 1 78.007 21.843 Q 77.499 21.737 77.116 21.493 A 2.181 2.181 0 0 1 76.648 21.094 A 3.833 3.833 0 0 1 75.889 19.751 A 5.054 5.054 0 0 1 75.702 18.988 A 13.764 13.764 0 0 1 75.572 17.955 Q 75.52 17.377 75.5 16.716 A 27.834 27.834 0 0 1 75.489 15.894 Z M 120.435 15.894 L 120.435 8.435 A 10.26 10.26 0 0 1 120.548 6.862 Q 120.677 6.035 120.951 5.352 A 5.334 5.334 0 0 1 121.277 4.675 A 2.781 2.781 0 0 1 123.29 3.276 A 4.327 4.327 0 0 1 124.06 3.211 A 2.703 2.703 0 0 1 125.446 3.577 A 2.634 2.634 0 0 1 126.428 4.566 L 126.428 0.073 L 129.663 0.073 L 129.663 21.741 L 126.428 21.741 L 126.428 20.044 A 3.522 3.522 0 0 1 125.9 20.984 Q 125.201 21.851 124.009 21.918 A 3.623 3.623 0 0 1 123.804 21.924 A 4.171 4.171 0 0 1 122.954 21.843 Q 122.446 21.737 122.062 21.493 A 2.181 2.181 0 0 1 121.595 21.094 A 3.833 3.833 0 0 1 120.836 19.751 A 5.054 5.054 0 0 1 120.648 18.988 A 13.764 13.764 0 0 1 120.518 17.955 Q 120.466 17.377 120.447 16.716 A 27.834 27.834 0 0 1 120.435 15.894 Z M 240.113 21.741 L 236.853 21.741 L 236.853 3.089 L 234.339 3.089 L 234.339 0.257 L 242.53 0.257 L 242.53 3.089 L 240.113 3.089 L 240.113 21.741 Z M 30.396 5.261 L 30.384 5.945 Q 29.407 5.945 28.467 6.275 A 3.286 3.286 0 0 0 27.966 6.495 Q 27.44 6.785 27.234 7.215 L 27.234 21.741 L 23.975 21.741 L 23.975 3.43 L 27.234 3.43 L 27.234 5.469 A 3.497 3.497 0 0 1 27.638 4.568 A 2.869 2.869 0 0 1 28.351 3.803 Q 29.151 3.211 30.347 3.211 A 0.043 0.043 0 0 1 30.358 3.243 Q 30.39 3.434 30.395 4.762 A 140.608 140.608 0 0 1 30.396 5.261 Z M 118.726 5.261 L 118.714 5.945 Q 117.737 5.945 116.797 6.275 A 3.286 3.286 0 0 0 116.296 6.495 Q 115.77 6.785 115.564 7.215 L 115.564 21.741 L 112.305 21.741 L 112.305 3.43 L 115.564 3.43 L 115.564 5.469 A 3.497 3.497 0 0 1 115.968 4.568 A 2.869 2.869 0 0 1 116.681 3.803 Q 117.481 3.211 118.677 3.211 A 0.043 0.043 0 0 1 118.688 3.243 Q 118.72 3.434 118.725 4.762 A 140.608 140.608 0 0 1 118.726 5.261 Z M 35.633 21.741 L 32.41 21.741 L 32.41 0.073 L 35.633 0.073 L 35.633 21.741 Z M 38.623 15.93 L 38.623 9.082 Q 38.623 3.211 43.201 3.211 A 5.016 5.016 0 0 1 45.257 3.601 Q 47.396 4.554 47.721 7.834 A 12.697 12.697 0 0 1 47.779 9.082 L 47.779 15.93 A 13.725 13.725 0 0 1 47.666 17.764 Q 47.381 19.871 46.373 20.897 A 3.076 3.076 0 0 1 45.423 21.558 A 4.339 4.339 0 0 1 44.487 21.847 Q 43.907 21.961 43.213 21.961 A 6.728 6.728 0 0 1 41.917 21.845 Q 41.195 21.703 40.652 21.387 A 2.997 2.997 0 0 1 39.624 20.41 A 5.338 5.338 0 0 1 39.014 19.054 Q 38.623 17.761 38.623 15.93 Z M 132.617 15.93 L 132.617 9.082 Q 132.617 3.211 137.195 3.211 A 5.016 5.016 0 0 1 139.251 3.601 Q 141.39 4.554 141.715 7.834 A 12.697 12.697 0 0 1 141.773 9.082 L 141.773 15.93 A 13.725 13.725 0 0 1 141.66 17.764 Q 141.375 19.871 140.367 20.897 A 3.076 3.076 0 0 1 139.417 21.558 A 4.339 4.339 0 0 1 138.481 21.847 Q 137.901 21.961 137.207 21.961 A 6.728 6.728 0 0 1 135.911 21.845 Q 135.189 21.703 134.646 21.387 A 2.997 2.997 0 0 1 133.618 20.41 A 5.338 5.338 0 0 1 133.008 19.054 Q 132.617 17.761 132.617 15.93 Z M 81.494 16.089 L 81.494 8.765 A 11.615 11.615 0 0 0 81.466 7.921 Q 81.37 6.613 80.95 6.153 A 0.836 0.836 0 0 0 80.811 6.03 A 1.147 1.147 0 0 0 80.362 5.856 A 1.538 1.538 0 0 0 80.103 5.835 Q 79.359 5.835 79.07 6.451 A 1.494 1.494 0 0 0 79.016 6.58 Q 78.748 7.324 78.748 8.801 L 78.748 16.333 A 12.813 12.813 0 0 0 78.771 17.124 Q 78.816 17.857 78.953 18.348 A 2.846 2.846 0 0 0 79.035 18.598 A 1.338 1.338 0 0 0 79.256 18.985 Q 79.516 19.294 79.952 19.34 A 1.501 1.501 0 0 0 80.109 19.348 Q 80.78 19.348 81.097 18.802 A 1.558 1.558 0 0 0 81.195 18.598 A 3.005 3.005 0 0 0 81.337 18.112 Q 81.451 17.573 81.482 16.755 A 17.287 17.287 0 0 0 81.494 16.089 Z M 126.441 16.089 L 126.441 8.765 A 11.615 11.615 0 0 0 126.412 7.921 Q 126.317 6.613 125.896 6.153 A 0.836 0.836 0 0 0 125.757 6.03 A 1.147 1.147 0 0 0 125.308 5.856 A 1.538 1.538 0 0 0 125.049 5.835 Q 124.306 5.835 124.016 6.451 A 1.494 1.494 0 0 0 123.963 6.58 Q 123.694 7.324 123.694 8.801 L 123.694 16.333 A 12.813 12.813 0 0 0 123.717 17.124 Q 123.762 17.857 123.899 18.348 A 2.846 2.846 0 0 0 123.981 18.598 A 1.338 1.338 0 0 0 124.202 18.985 Q 124.462 19.294 124.898 19.34 A 1.501 1.501 0 0 0 125.055 19.348 Q 125.727 19.348 126.043 18.802 A 1.558 1.558 0 0 0 126.142 18.598 A 3.005 3.005 0 0 0 126.283 18.112 Q 126.397 17.573 126.429 16.755 A 17.287 17.287 0 0 0 126.441 16.089 Z M 44.519 16.699 L 44.519 8.508 A 10.325 10.325 0 0 0 44.497 7.806 Q 44.44 6.977 44.239 6.494 A 1.164 1.164 0 0 0 43.993 6.116 Q 43.769 5.892 43.424 5.839 A 1.482 1.482 0 0 0 43.201 5.823 A 1.321 1.321 0 0 0 42.784 5.885 Q 42.398 6.012 42.202 6.404 A 1.413 1.413 0 0 0 42.163 6.488 Q 41.919 7.068 41.887 8.17 A 11.832 11.832 0 0 0 41.883 8.508 L 41.883 16.699 A 9.534 9.534 0 0 0 41.912 17.48 Q 42.013 18.702 42.461 19.102 A 0.806 0.806 0 0 0 42.542 19.165 A 1.021 1.021 0 0 0 42.908 19.318 Q 43.048 19.348 43.211 19.348 A 1.166 1.166 0 0 0 43.213 19.348 A 1.317 1.317 0 0 0 43.628 19.287 Q 44.014 19.159 44.207 18.767 A 1.398 1.398 0 0 0 44.245 18.683 A 2.842 2.842 0 0 0 44.389 18.203 Q 44.519 17.606 44.519 16.699 Z M 138.513 16.699 L 138.513 8.508 A 10.325 10.325 0 0 0 138.491 7.806 Q 138.434 6.977 138.233 6.494 A 1.164 1.164 0 0 0 137.987 6.116 Q 137.763 5.892 137.418 5.839 A 1.482 1.482 0 0 0 137.195 5.823 A 1.321 1.321 0 0 0 136.778 5.885 Q 136.393 6.012 136.196 6.404 A 1.413 1.413 0 0 0 136.157 6.488 Q 135.913 7.068 135.881 8.17 A 11.832 11.832 0 0 0 135.877 8.508 L 135.877 16.699 A 9.534 9.534 0 0 0 135.906 17.48 Q 136.007 18.702 136.455 19.102 A 0.806 0.806 0 0 0 136.536 19.165 A 1.021 1.021 0 0 0 136.902 19.318 Q 137.043 19.348 137.205 19.348 A 1.166 1.166 0 0 0 137.207 19.348 A 1.317 1.317 0 0 0 137.623 19.287 Q 138.008 19.159 138.201 18.767 A 1.398 1.398 0 0 0 138.239 18.683 A 2.842 2.842 0 0 0 138.384 18.203 Q 138.513 17.606 138.513 16.699 Z M 17.603 18.018 L 17.603 11.804 A 13.413 13.413 0 0 0 16.896 12.142 Q 16.208 12.497 15.806 12.832 A 2.494 2.494 0 0 0 15.528 13.098 A 1.866 1.866 0 0 0 15.18 13.705 Q 15.079 13.984 15.032 14.329 A 4.903 4.903 0 0 0 14.991 14.99 L 14.991 16.956 A 9.815 9.815 0 0 0 15.007 17.551 Q 15.058 18.376 15.259 18.793 Q 15.528 19.348 16.132 19.348 A 1.456 1.456 0 0 0 16.619 19.27 A 1.253 1.253 0 0 0 17.121 18.939 A 1.919 1.919 0 0 0 17.486 18.395 A 1.753 1.753 0 0 0 17.603 18.018 Z M 105.933 18.018 L 105.933 11.804 A 13.413 13.413 0 0 0 105.226 12.142 Q 104.538 12.497 104.136 12.832 A 2.494 2.494 0 0 0 103.858 13.098 A 1.866 1.866 0 0 0 103.51 13.705 Q 103.409 13.984 103.362 14.329 A 4.903 4.903 0 0 0 103.321 14.99 L 103.321 16.956 A 9.815 9.815 0 0 0 103.337 17.551 Q 103.388 18.376 103.589 18.793 Q 103.858 19.348 104.462 19.348 A 1.456 1.456 0 0 0 104.949 19.27 A 1.253 1.253 0 0 0 105.451 18.939 A 1.919 1.919 0 0 0 105.816 18.395 A 1.753 1.753 0 0 0 105.933 18.018 Z M 175.623 8.655 L 175.623 10.913 L 178.235 10.913 L 178.235 8.57 A 15.196 15.196 0 0 0 178.22 7.872 Q 178.189 7.192 178.091 6.748 A 2.62 2.62 0 0 0 177.997 6.415 Q 177.8 5.875 177.266 5.782 A 1.386 1.386 0 0 0 177.027 5.762 L 177.014 5.762 A 1.134 1.134 0 0 0 175.95 6.389 Q 175.697 6.851 175.65 7.652 A 5.848 5.848 0 0 0 175.647 7.703 Q 175.623 8.065 175.623 8.642 A 29.007 29.007 0 0 0 175.623 8.655 Z M 247.29 21.741 L 244.544 21.741 L 244.544 18.738 L 247.29 18.738 L 247.29 21.741 Z" vector-effect="non-scaling-stroke"/></g></svg>