<svg width="354pt" height="132pt" viewBox="0 0 354 132" xmlns="http://www.w3.org/2000/svg"><g id="fontsvg1676395634768" stroke-linecap="round" fill-rule="evenodd" fill="#ffffff"><path d="M 0.002 94.783 L 0.002 38.606 A 84.211 84.211 0 0 1 0.803 26.486 Q 2.86 12.404 10.197 5.883 A 20.734 20.734 0 0 1 15.089 2.644 Q 20.221 0.213 27.344 0.023 A 45.845 45.845 0 0 1 28.566 0.007 A 30.353 30.353 0 0 1 40.613 2.217 Q 55.739 8.71 55.739 34.285 L 55.739 52.009 L 36.769 52.009 L 36.769 35.53 Q 36.769 27.867 35.772 23.563 A 16.341 16.341 0 0 0 35.085 21.284 A 7.088 7.088 0 0 0 33.547 18.846 Q 32.203 17.492 30.112 17.131 A 9.515 9.515 0 0 0 28.493 16.999 A 8.13 8.13 0 0 0 25.626 17.477 Q 22.968 18.472 21.681 21.54 A 18.648 18.648 0 0 0 20.718 24.663 Q 19.987 27.929 19.824 32.639 A 81.58 81.58 0 0 0 19.777 35.456 L 19.777 95.661 A 94.593 94.593 0 0 0 19.891 100.491 Q 20.133 105.19 20.882 108.242 A 16.341 16.341 0 0 0 21.608 110.53 A 7.978 7.978 0 0 0 23.089 112.933 Q 24.654 114.635 27.161 114.934 A 9.39 9.39 0 0 0 28.273 114.997 Q 33.107 114.997 34.938 110.456 A 18.231 18.231 0 0 0 35.818 107.457 Q 36.508 104.215 36.698 99.351 A 100.772 100.772 0 0 0 36.769 95.442 L 36.769 76.985 L 56.032 76.985 L 56.032 95.222 Q 56.032 112.686 50.204 121.665 A 23.228 23.228 0 0 1 49.367 122.871 A 21.22 21.22 0 0 1 37.339 130.783 Q 33.705 131.744 29.332 131.834 A 44.315 44.315 0 0 1 28.42 131.843 A 33.729 33.729 0 0 1 19.824 130.814 A 22.482 22.482 0 0 1 7.069 122.285 Q 1.801 115.161 0.46 103.377 A 76.115 76.115 0 0 1 0.002 94.783 Z M 351.491 51.057 L 351.491 57.063 L 334.132 57.063 L 334.132 49.812 A 52.923 52.923 0 0 0 333.999 45.914 Q 333.659 41.321 332.448 38.716 A 6.941 6.941 0 0 0 331.102 36.727 Q 329.693 35.308 327.526 35.119 A 7.864 7.864 0 0 0 326.845 35.09 Q 322.926 35.09 321.059 37.361 Q 319.412 39.362 319.217 43.869 A 29.076 29.076 0 0 0 319.191 45.124 A 19.839 19.839 0 0 0 322.615 56.151 A 29.932 29.932 0 0 0 326.955 61.311 L 337.355 70.759 A 58.964 58.964 0 0 1 346.487 81.386 A 39.766 39.766 0 0 1 353.395 103.645 A 49.647 49.647 0 0 1 352.834 111.375 Q 351.503 119.795 347.023 124.739 A 19.717 19.717 0 0 1 338.582 130.12 Q 333.74 131.77 327.248 131.77 A 37.097 37.097 0 0 1 319.733 131.059 Q 311.903 129.438 307.472 124.116 Q 301.502 116.945 301.126 101.639 A 85.289 85.289 0 0 1 301.1 99.543 L 301.1 92.439 L 319.338 92.439 L 319.338 101.301 A 43.135 43.135 0 0 0 319.589 106.186 Q 320.709 115.95 326.808 115.95 Q 329.786 115.95 331.518 114.476 A 5.551 5.551 0 0 0 332.521 113.349 A 7.794 7.794 0 0 0 333.439 111.399 Q 334.279 108.828 334.279 104.524 Q 334.279 93.537 324.172 84.162 A 5.954 5.954 0 0 0 324.034 84.032 Q 323.325 83.375 319.447 79.914 Q 315.501 76.392 314.488 75.426 A 12.571 12.571 0 0 1 314.284 75.227 A 44.403 44.403 0 0 1 305.511 64.457 A 36.372 36.372 0 0 1 300.734 46.15 Q 300.734 22.806 320.182 19.68 A 40.877 40.877 0 0 1 326.662 19.197 A 35.675 35.675 0 0 1 333.706 19.845 Q 341.324 21.382 345.522 26.557 A 21.489 21.489 0 0 1 348.92 32.773 Q 351.491 39.81 351.491 51.057 Z M 70.168 101.521 L 70.168 94.49 A 41.566 41.566 0 0 1 70.911 86.366 Q 72.548 78.161 77.785 73.176 Q 82.181 68.911 92.044 64.881 A 107.654 107.654 0 0 1 94.411 63.948 Q 96.037 63.331 98.629 62.37 A 1334.939 1334.939 0 0 1 100.307 61.75 A 1478.519 1478.519 0 0 0 102.053 61.105 Q 104.463 60.212 105.617 59.773 L 105.617 50.178 Q 105.617 41.739 104.473 38.428 A 7.945 7.945 0 0 0 104.335 38.056 Q 103.129 35.058 99.004 34.882 A 12.342 12.342 0 0 0 98.476 34.87 A 9.608 9.608 0 0 0 96.258 35.108 A 5.421 5.421 0 0 0 92.36 38.24 A 12.287 12.287 0 0 0 91.619 40.491 Q 90.822 43.846 90.822 49.592 L 90.822 54.499 L 71.632 54.499 L 71.632 51.203 A 67.114 67.114 0 0 1 72.173 42.384 Q 72.751 38.034 73.948 34.469 A 26.95 26.95 0 0 1 77.455 27.4 Q 83.278 19.197 98.11 19.197 Q 107.278 19.197 113.172 22.331 A 18.262 18.262 0 0 1 119.203 27.4 A 26.221 26.221 0 0 1 123.14 35.06 Q 124.366 38.726 124.946 43.239 A 69.038 69.038 0 0 1 125.465 52.009 L 125.465 130.378 L 105.91 130.378 L 105.91 119.465 A 17.199 17.199 0 0 1 100.307 127.998 A 14.781 14.781 0 0 1 91.393 131.446 A 18.958 18.958 0 0 1 90.309 131.477 A 23.384 23.384 0 0 1 84.319 130.76 A 14.982 14.982 0 0 1 74.928 123.75 Q 70.36 116.099 70.171 101.807 A 92.101 92.101 0 0 1 70.168 101.521 Z M 182.375 31.501 L 182.301 35.603 A 34.519 34.519 0 0 0 170.802 37.58 Q 165.163 39.558 163.405 43.22 L 163.405 130.378 L 143.849 130.378 L 143.849 20.515 L 163.405 20.515 L 163.405 32.746 A 20.98 20.98 0 0 1 165.826 27.34 A 17.215 17.215 0 0 1 170.107 22.749 A 17.732 17.732 0 0 1 177.403 19.621 A 24.639 24.639 0 0 1 182.082 19.197 A 0.256 0.256 0 0 1 182.15 19.389 Q 182.341 20.534 182.37 28.506 A 843.593 843.593 0 0 1 182.375 31.501 Z M 213.796 130.378 L 194.46 130.378 L 194.46 0.373 L 213.796 0.373 L 213.796 130.378 Z M 231.74 95.515 L 231.74 54.426 A 66.283 66.283 0 0 1 232.873 41.568 Q 236.906 21.274 255.291 19.39 A 38.398 38.398 0 0 1 259.206 19.197 A 30.096 30.096 0 0 1 271.542 21.538 Q 284.376 27.256 286.323 46.938 A 76.183 76.183 0 0 1 286.672 54.426 L 286.672 95.515 Q 286.672 116.728 278.239 125.315 A 18.457 18.457 0 0 1 272.536 129.28 Q 267.836 131.376 261.318 131.654 A 47.794 47.794 0 0 1 259.279 131.697 A 40.368 40.368 0 0 1 251.499 131.001 Q 242.109 129.153 237.746 122.395 A 32.03 32.03 0 0 1 234.086 114.255 Q 232.858 110.196 232.273 105.252 A 83.069 83.069 0 0 1 231.74 95.515 Z M 267.116 100.129 L 267.116 50.984 A 61.949 61.949 0 0 0 266.983 46.771 Q 266.642 41.794 265.431 38.899 A 6.981 6.981 0 0 0 263.956 36.626 Q 262.203 34.87 259.206 34.87 Q 254.961 34.87 253.212 38.359 A 8.478 8.478 0 0 0 252.98 38.862 Q 251.296 42.854 251.296 50.984 L 251.296 100.129 A 57.203 57.203 0 0 0 251.472 104.81 Q 252.077 112.144 254.764 114.542 A 4.836 4.836 0 0 0 255.251 114.924 Q 256.857 116.019 259.264 116.023 A 10.492 10.492 0 0 0 259.279 116.023 A 7.902 7.902 0 0 0 261.77 115.655 Q 264.081 114.89 265.24 112.535 A 8.39 8.39 0 0 0 265.468 112.031 A 17.052 17.052 0 0 0 266.337 109.154 Q 267.004 106.083 267.1 101.655 A 70.496 70.496 0 0 0 267.116 100.129 Z M 105.617 108.039 L 105.617 70.759 Q 98.378 73.977 94.834 76.923 A 14.962 14.962 0 0 0 93.166 78.523 Q 90.84 81.166 90.193 85.907 A 29.415 29.415 0 0 0 89.943 89.875 L 89.943 101.667 Q 89.943 109.358 91.554 112.69 A 6.496 6.496 0 0 0 92.855 114.545 Q 94.186 115.838 96.2 116 A 7.372 7.372 0 0 0 96.791 116.023 A 8.737 8.737 0 0 0 99.711 115.553 A 7.521 7.521 0 0 0 102.724 113.569 A 11.514 11.514 0 0 0 104.916 110.303 A 10.515 10.515 0 0 0 105.617 108.039 Z" vector-effect="non-scaling-stroke"/></g></svg>